<svg xmlns="http://www.w3.org/2000/svg" version="1.1" xmlns:xlink="http://www.w3.org/1999/xlink" xmlns:svgjs="http://svgjs.dev/svgjs" viewBox="0 0 800 400"><path d="M59.64125442504883,131.83856201171875C76.73094205856323,136.9820594024658,134.59641916275024,148.69057792663574,152.0179443359375,159.64125061035156C169.43946950912476,170.59192329406739,124.77578994750976,192.8564980316162,153.81166076660156,191.03138732910156C182.84753158569336,189.2062766265869,286.403574142456,127.04484672546387,308.9685974121094,149.77578735351562C331.5336206817627,172.5067279815674,251.39461990356446,328.8340725326538,275.7847595214844,313.9013366699219C300.1748991394043,298.96860080718994,417.41257141113283,75.86098693847656,440.80718994140625,69.05829620361328C464.20180847167967,62.25560546875,387.4753427124023,273.1479722213745,402.2421569824219,277.1300354003906C417.0089712524414,281.11209857940673,498.22871017456055,103.19282524108887,520.6278076171875,90.58296203613281C543.0269050598145,77.97309883117676,517.013432006836,172.13453285217287,523.318359375,208.96861267089844C529.623286743164,245.802692489624,539.9416705322266,281.88789001464846,554.70849609375,289.68609619140625C569.4753216552734,297.48430236816404,583.3946353149414,268.87444190979005,603.1390380859375,251.12107849121094C622.8834408569336,233.36771507263182,650.6502450561524,204.34080474853516,661.4349975585938,193.7219696044922" fill="none" stroke-width="4" stroke="#e4a200fc" stroke-linecap="round" stroke-dasharray="12 21" transform="matrix(1,0,0,1,39.46186447143555,8.404464721679688)"></path><defs><linearGradient id="SvgjsLinearGradient1005" gradientTransform="rotate(0, 0.5, 0.5)"><stop stop-color="#febe00" offset="0"></stop><stop stop-color="#febe00" offset="1"></stop></linearGradient></defs></svg>

