<svg xmlns="http://www.w3.org/2000/svg" version="1.1" xmlns:xlink="http://www.w3.org/1999/xlink" xmlns:svgjs="http://svgjs.dev/svgjs" viewBox="0 0 800 800"><g stroke-width="5" stroke="white" fill="none" stroke-linecap="round"><path d="M400.72 151.63C409.06 151.02 417.29 151.02 425.39 151.61 433.48 152.37 441.45 153.72 449.27 155.61 457.08 157.66 464.75 160.23 472.24 163.29 479.72 166.45 487.04 170.05 494.16 174.04 501.28 178.08 508.2 182.47 514.92 187.17 521.64 191.87 528.15 196.84 534.45 202.05 540.76 207.21 546.85 212.6 552.72 218.18 558.62 223.69 564.31 229.4 569.76 235.27 575.25 241.08 580.52 247.06 585.54 253.2 590.61 259.28 595.42 265.54 599.96 271.96 604.52 278.33 608.79 284.89 612.73 291.61 616.66 298.3 620.23 305.17 623.42 312.2 626.55 319.23 629.28 326.43 631.59 333.8 633.82 341.16 635.64 348.69 637.02 356.38 638.38 364.07 639.33 371.92 639.88 379.91 640.46 387.9 640.69 396.04 640.55 404.3 640.5 412.57 640.1 420.76 639.37 428.85 638.72 436.94 637.71 444.93 636.35 452.8 635.01 460.67 633.29 468.4 631.17 475.98 629.02 483.56 626.45 490.97 623.49 498.2 620.46 505.42 617.03 512.45 613.23 519.27 609.38 526.06 605.17 532.64 600.64 538.98 596.09 545.3 591.23 551.37 586.11 557.17 580.99 562.95 575.62 568.46 570.02 573.67 564.44 578.87 558.64 583.78 552.63 588.38 546.65 592.97 540.45 597.25 534.06 601.22 527.68 605.18 521.11 608.83 514.34 612.16 507.58 615.5 500.63 618.53 493.49 621.23 486.36 623.96 479.05 626.38 471.56 628.46 464.08 630.59 456.43 632.4 448.62 633.88 440.82 635.41 432.86 636.62 424.77 637.48 416.68 638.39 408.46 638.96 400.12 639.17 391.79 639.43 383.54 639.3 375.39 638.81 367.24 638.35 359.2 637.51 351.28 636.29 343.37 635.09 335.58 633.5 327.94 631.54 320.3 629.57 312.81 627.21 305.49 624.49 298.18 621.74 291.04 618.61 284.11 615.12 277.19 611.6 270.48 607.71 264.01 603.48 257.55 599.2 251.34 594.59 245.4 589.66 239.48 584.68 233.84 579.4 228.49 573.82 223.16 568.21 218.13 562.31 213.4 556.16 208.68 549.98 204.26 543.55 200.13 536.89 195.98 530.21 192.11 523.32 188.53 516.23 184.89 509.12 181.53 501.83 178.44 494.37 175.3 486.91 172.44 479.28 169.88 471.51 167.3 463.74 165.04 455.84 163.17 447.82 161.31 439.8 159.86 431.67 158.87 423.46 157.94 415.24 157.5 406.94 157.55 398.58 157.69 390.22 158.31 382 159.37 373.95 160.47 365.89 161.97 358 163.83 350.3 165.67 342.6 167.83 335.09 170.3 327.79 172.7 320.49 175.39 313.41 178.37 306.55 181.29 299.7 184.51 293.08 188.03 286.69 191.52 280.31 195.33 274.17 199.45 268.27 203.59 262.36 208.05 256.69 212.83 251.27 217.65 245.81 222.79 240.58 228.22 235.57 233.69 230.52 239.46 225.67 245.49 221.03 251.54 216.31 257.85 211.78 264.4 207.45 270.95 203.01 277.72 198.75 284.69 194.69 291.66 190.51 298.82 186.52 306.15 182.75 313.47 178.88 320.97 175.24 328.6 171.87 336.24 168.44 344.01 165.32 351.92 162.55 359.82 159.79 367.85 157.43 375.99 155.52 384.13 153.7 392.38 152.39 400.71 151.63" stroke-dasharray="85 40" transform="rotate(0, 400, 400)" opacity="0.46"></path><path d="M400.4 163.24C408.34 162.67 416.17 162.66 423.88 163.2 431.59 163.9 439.17 165.14 446.6 166.9 454.04 168.8 461.33 171.2 468.45 174.05 475.58 177 482.54 180.37 489.32 184.12 496.1 187.92 502.7 192.07 509.11 196.52 515.53 200.98 521.76 205.71 527.78 210.68 533.83 215.63 539.67 220.79 545.31 226.16 550.97 231.47 556.44 236.97 561.68 242.64 566.96 248.25 572.02 254.03 576.85 259.97 581.7 265.86 586.31 271.91 590.65 278.11 594.99 284.28 599.05 290.6 602.79 297.08 606.5 303.53 609.87 310.15 612.88 316.91 615.83 323.66 618.4 330.57 620.56 337.63 622.67 344.68 624.38 351.89 625.69 359.24 626.97 366.58 627.87 374.07 628.4 381.69 628.96 389.31 629.18 397.06 629.05 404.92 629 412.78 628.61 420.56 627.91 428.24 627.28 435.93 626.31 443.51 625.01 450.97 623.73 458.43 622.09 465.76 620.08 472.94 618.05 480.11 615.63 487.13 612.84 493.97 610 500.8 606.77 507.44 603.19 513.88 599.56 520.31 595.59 526.52 591.3 532.51 586.98 538.47 582.37 544.2 577.48 549.68 572.6 555.14 567.47 560.34 562.1 565.27 556.76 570.18 551.19 574.82 545.42 579.18 539.67 583.52 533.72 587.58 527.59 591.33 521.47 595.09 515.17 598.56 508.68 601.72 502.21 604.9 495.56 607.79 488.74 610.36 481.93 612.96 474.94 615.27 467.8 617.27 460.67 619.3 453.37 621.04 445.93 622.46 438.49 623.93 430.91 625.09 423.21 625.92 415.5 626.8 407.67 627.36 399.73 627.56 391.79 627.82 383.93 627.71 376.17 627.25 368.42 626.82 360.76 626.03 353.23 624.89 345.69 623.76 338.28 622.26 331.01 620.42 323.75 618.56 316.64 616.34 309.69 613.78 302.75 611.19 295.99 608.24 289.42 604.95 282.87 601.64 276.52 597.97 270.4 593.99 264.3 589.96 258.43 585.61 252.82 580.96 247.23 576.27 241.89 571.28 236.83 566.01 231.79 560.71 227.02 555.14 222.53 549.32 218.03 543.48 213.81 537.39 209.86 531.08 205.88 524.76 202.16 518.22 198.71 511.5 195.21 504.75 191.97 497.83 188.99 490.75 185.96 483.66 183.21 476.41 180.76 469.04 178.29 461.65 176.14 454.14 174.36 446.52 172.59 438.89 171.22 431.17 170.29 423.36 169.42 415.55 169 407.66 169.05 399.72 169.18 391.77 169.77 383.96 170.78 376.31 171.82 368.66 173.25 361.16 175.03 353.85 176.79 346.53 178.86 339.4 181.24 332.46 183.55 325.52 186.15 318.78 189.02 312.25 191.84 305.73 194.93 299.41 198.3 293.31 201.64 287.22 205.28 281.33 209.2 275.68 213.13 270 217.36 264.54 221.88 259.31 226.43 254.04 231.28 248.97 236.41 244.12 241.57 239.21 247.01 234.49 252.7 229.97 258.42 225.38 264.39 220.96 270.59 216.73 276.8 212.41 283.23 208.27 289.85 204.31 296.47 200.26 303.28 196.41 310.26 192.77 317.24 189.05 324.38 185.56 331.66 182.34 338.94 179.08 346.35 176.12 353.89 173.49 361.43 170.89 369.08 168.67 376.84 166.88 384.6 165.18 392.46 163.95 400.39 163.24" stroke-dasharray="49 77" transform="rotate(1.9000000000000001, 400, 400)" opacity="0.65"></path><path d="M400.02 174.84C407.56 174.31 415 174.3 422.32 174.8 429.64 175.44 436.84 176.58 443.9 178.21 450.96 179.97 457.89 182.19 464.66 184.84 471.43 187.58 478.05 190.73 484.51 194.24 490.96 197.81 497.26 201.71 503.37 205.9 509.49 210.12 515.44 214.6 521.21 219.33 526.99 224.03 532.58 228.97 537.99 234.09 543.41 239.18 548.65 244.46 553.68 249.91 558.73 255.31 563.57 260.88 568.19 266.59 572.82 272.27 577.21 278.1 581.33 284.07 585.45 290.01 589.29 296.1 592.82 302.33 596.32 308.54 599.49 314.89 602.31 321.38 605.08 327.85 607.49 334.47 609.52 341.23 611.5 347.97 613.11 354.85 614.34 361.86 615.56 368.87 616.42 376 616.93 383.25 617.46 390.49 617.67 397.85 617.55 405.31 617.5 412.77 617.13 420.16 616.46 427.44 615.84 434.72 614.91 441.9 613.67 448.96 612.45 456.01 610.89 462.94 608.99 469.72 607.08 476.5 604.8 483.12 602.17 489.57 599.51 496.02 596.48 502.28 593.12 508.35 589.71 514.41 585.97 520.27 581.92 525.91 577.85 531.53 573.49 536.93 568.86 542.09 564.22 547.24 559.34 552.15 554.23 556.79 549.13 561.43 543.81 565.81 538.29 569.92 532.79 574.02 527.1 577.86 521.23 581.42 515.38 584.98 509.34 588.27 503.14 591.27 496.96 594.29 490.6 597.03 484.09 599.48 477.59 601.96 470.93 604.16 464.13 606.07 457.33 608.02 450.38 609.68 443.3 611.04 436.22 612.45 429.01 613.56 421.69 614.36 414.36 615.21 406.92 615.75 399.38 615.95 391.84 616.2 384.37 616.11 377.01 615.68 369.64 615.29 362.38 614.55 355.23 613.48 348.08 612.42 341.06 611.01 334.17 609.27 327.3 607.53 320.56 605.45 313.99 603.03 307.43 600.6 301.04 597.83 294.84 594.75 288.66 591.63 282.67 588.19 276.9 584.44 271.14 580.66 265.61 576.57 260.32 572.2 255.04 567.79 250.01 563.1 245.22 558.14 240.45 553.15 235.92 547.91 231.65 542.42 227.37 536.91 223.34 531.17 219.56 525.22 215.75 519.25 212.18 513.08 208.86 506.72 205.5 500.35 202.38 493.8 199.52 487.1 196.61 480.39 193.98 473.53 191.64 466.55 189.28 459.55 187.24 452.43 185.55 445.21 183.88 437.99 182.59 430.67 181.71 423.27 180.89 415.87 180.5 408.39 180.55 400.86 180.67 393.33 181.22 385.93 182.18 378.68 183.17 371.42 184.52 364.32 186.22 357.38 187.9 350.44 189.89 343.67 192.16 337.08 194.39 330.49 196.89 324.08 199.65 317.87 202.36 311.66 205.33 305.63 208.56 299.81 211.76 293.99 215.23 288.36 218.96 282.93 222.69 277.49 226.69 272.24 230.97 267.19 235.26 262.1 239.83 257.21 244.67 252.51 249.52 247.75 254.64 243.17 260.01 238.78 265.4 234.32 271.02 230.03 276.87 225.92 282.73 221.73 288.8 217.71 295.06 213.89 301.33 209.98 307.79 206.27 314.4 202.77 321.02 199.21 327.79 195.88 334.7 192.82 341.61 189.72 348.66 186.92 355.82 184.45 362.98 182 370.26 179.92 377.63 178.25 385 176.65 392.47 175.5 400.01 174.84" stroke-dasharray="30 32" transform="rotate(3.8000000000000003, 400, 400)" opacity="0.89"></path><path d="M399.63 186.45C406.78 185.95 413.83 185.94 420.76 186.4 427.7 186.98 434.52 188.03 441.22 189.54 447.91 191.16 454.48 193.21 460.91 195.66 467.34 198.21 473.63 201.13 479.76 204.41 485.91 207.74 491.89 211.39 497.72 215.33 503.55 219.29 509.23 223.52 514.73 227.99 520.25 232.45 525.59 237.13 530.76 242 535.94 246.86 540.94 251.9 545.74 257.1 550.55 262.27 555.17 267.61 559.55 273.09 563.95 278.53 568.11 284.13 572.01 289.86 575.9 295.56 579.52 301.4 582.83 307.37 586.12 313.32 589.09 319.4 591.73 325.61 594.32 331.81 596.57 338.13 598.47 344.57 600.33 351.01 601.84 357.56 603 364.23 604.15 370.9 604.97 377.68 605.45 384.56 605.96 391.44 606.16 398.42 606.05 405.48 606 412.55 605.64 419.53 605 426.41 604.41 433.29 603.52 440.07 602.33 446.73 601.17 453.39 599.69 459.92 597.89 466.31 596.09 472.7 593.95 478.94 591.49 485.01 588.99 491.07 586.16 496.97 583.01 502.68 579.82 508.38 576.31 513.89 572.52 519.19 568.69 524.48 564.58 529.56 560.22 534.41 555.84 539.25 551.22 543.87 546.37 548.24 541.53 552.61 536.48 556.74 531.23 560.61 525.99 564.49 520.57 568.11 514.97 571.47 509.39 574.84 503.63 577.96 497.72 580.8 491.82 583.67 485.77 586.27 479.57 588.6 473.38 590.96 467.04 593.06 460.57 594.88 454.1 596.73 447.5 598.32 440.78 599.62 434.06 600.97 427.22 602.04 420.27 602.8 413.32 603.62 406.27 604.14 399.12 604.34 391.98 604.59 384.91 604.51 377.94 604.12 370.97 603.75 364.1 603.06 357.34 602.05 350.59 601.06 343.95 599.74 337.45 598.11 330.96 596.48 324.61 594.53 318.42 592.26 312.24 589.99 306.22 587.39 300.38 584.5 294.56 581.58 288.93 578.36 283.5 574.85 278.08 571.31 272.87 567.48 267.88 563.38 262.91 559.25 258.15 554.85 253.63 550.2 249.11 545.52 244.81 540.6 240.75 535.45 236.68 530.27 232.83 524.88 229.22 519.28 225.58 513.67 222.16 507.86 218.97 501.88 215.75 495.88 212.76 489.71 210.02 483.4 207.25 477.07 204.73 470.6 202.51 464.01 200.27 457.41 198.34 450.69 196.74 443.87 195.17 437.05 193.96 430.14 193.14 423.14 192.37 416.15 192 409.09 192.05 401.97 192.16 394.85 192.69 387.86 193.59 380.99 194.52 374.13 195.8 367.41 197.41 360.84 199.01 354.27 200.91 347.85 203.08 341.6 205.22 335.35 207.62 329.27 210.26 323.36 212.86 317.45 215.71 311.72 218.8 306.16 221.86 300.6 225.16 295.22 228.71 290.02 232.25 284.8 236.05 279.75 240.09 274.89 244.14 270 248.44 265.28 252.99 260.73 257.56 256.14 262.37 251.71 267.41 247.46 272.47 243.14 277.76 238.99 283.25 235.02 288.77 230.97 294.48 227.1 300.38 223.42 306.28 219.66 312.37 216.11 318.61 212.76 324.86 209.37 331.26 206.2 337.79 203.3 344.33 200.38 351 197.74 357.77 195.42 364.55 193.12 371.44 191.18 378.42 189.62 385.4 188.13 392.48 187.06 399.62 186.45" stroke-dasharray="87 36" transform="rotate(5.7, 400, 400)" opacity="0.48"></path><path d="M399.3 198.06C406.05 197.59 412.71 197.57 419.26 198 425.82 198.53 432.27 199.49 438.61 200.88 444.94 202.36 451.16 204.25 457.25 206.52 463.34 208.87 469.31 211.58 475.13 214.62 480.96 217.72 486.65 221.12 492.18 224.8 497.73 228.51 503.13 232.48 508.36 236.68 513.61 240.88 518.7 245.3 523.61 249.91 528.54 254.51 533.29 259.3 537.85 264.24 542.41 269.16 546.78 274.25 550.93 279.47 555.08 284.67 559 290.01 562.67 295.49 566.32 300.93 569.71 306.51 572.81 312.21 575.88 317.89 578.66 323.7 581.12 329.62 583.54 335.52 585.64 341.55 587.41 347.68 589.15 353.8 590.57 360.03 591.65 366.36 592.74 372.68 593.51 379.11 593.97 385.62 594.46 392.13 594.66 398.73 594.55 405.41 594.5 412.08 594.16 418.67 593.54 425.16 592.98 431.65 592.12 438.03 590.99 444.3 589.89 450.56 588.49 456.71 586.8 462.71 585.1 468.71 583.09 474.57 580.78 480.27 578.45 485.97 575.8 491.5 572.86 496.86 569.89 502.21 566.61 507.38 563.07 512.35 559.49 517.31 555.64 522.08 551.55 526.63 547.43 531.18 543.08 535.52 538.52 539.63 533.95 543.74 529.17 547.62 524.21 551.26 519.24 554.91 514.1 558.33 508.79 561.5 503.49 564.69 498.03 567.63 492.42 570.32 486.81 573.04 481.06 575.51 475.18 577.72 469.3 579.96 463.28 581.95 457.15 583.68 451.02 585.45 444.76 586.97 438.39 588.21 432.03 589.5 425.56 590.51 418.99 591.25 412.42 592.03 405.75 592.54 399 592.74 392.25 592.98 385.58 592.91 379.01 592.54 372.43 592.21 365.96 591.56 359.59 590.62 353.23 589.69 346.99 588.46 340.87 586.93 334.77 585.41 328.8 583.58 322.98 581.47 317.17 579.34 311.52 576.91 306.04 574.21 300.57 571.49 295.28 568.48 290.18 565.2 285.08 561.89 280.18 558.32 275.49 554.49 270.8 550.63 266.31 546.52 262.04 542.17 257.76 537.8 253.69 533.2 249.83 528.38 245.96 523.54 242.29 518.49 238.84 513.25 235.36 508 232.1 502.55 229.05 496.94 225.97 491.31 223.12 485.53 220.51 479.6 217.87 473.66 215.48 467.58 213.37 461.38 211.26 455.18 209.44 448.86 207.94 442.45 206.46 436.03 205.33 429.52 204.56 422.94 203.84 416.36 203.5 409.7 203.55 402.99 203.66 396.29 204.15 389.69 204.99 383.21 205.87 376.74 207.08 370.39 208.6 364.18 210.11 357.98 211.92 351.91 213.99 345.99 216.02 340.07 218.31 334.3 220.84 328.69 223.33 323.08 226.05 317.62 229 312.33 231.92 307.03 235.07 301.89 238.44 296.92 241.8 291.92 245.39 287.09 249.21 282.42 253.03 277.72 257.09 273.18 261.36 268.8 265.65 264.38 270.16 260.11 274.89 256.01 279.64 251.86 284.59 247.86 289.74 244.04 294.91 240.15 300.27 236.44 305.8 232.91 311.35 229.32 317.06 225.93 322.93 222.75 328.8 219.53 334.82 216.54 340.97 213.8 347.13 211.05 353.41 208.57 359.8 206.4 366.19 204.26 372.69 202.45 379.28 201 385.87 199.62 392.54 198.63 399.29 198.06" stroke-dasharray="26 81" transform="rotate(7.6000000000000005, 400, 400)" opacity="0.43"></path><path d="M399.08 209.67C405.43 209.23 411.7 209.21 417.88 209.6 424.05 210.08 430.14 210.96 436.12 212.23 442.09 213.59 447.97 215.33 453.72 217.42 459.47 219.58 465.11 222.08 470.62 224.88 476.13 227.75 481.52 230.9 486.76 234.32 492.02 237.78 497.13 241.48 502.09 245.41 507.06 249.34 511.88 253.49 516.53 257.83 521.19 262.17 525.68 266.68 529.98 271.35 534.29 276.01 538.4 280.83 542.3 285.78 546.2 290.72 549.87 295.79 553.3 300.99 556.71 306.17 559.87 311.47 562.76 316.89 565.62 322.29 568.2 327.8 570.48 333.42 572.73 339.03 574.69 344.74 576.34 350.55 577.96 356.35 579.29 362.26 580.31 368.24 581.33 374.23 582.06 380.3 582.5 386.44 582.96 392.59 583.15 398.81 583.05 405.1 583 411.38 582.68 417.58 582.09 423.68 581.55 429.78 580.74 435.78 579.66 441.66 578.61 447.54 577.29 453.3 575.69 458.93 573.16 467.29 566.65 483.3 562.68 490.9 558.39 498.33 548.44 512.28 542.83 518.78 536.95 525.07 524.11 536.64 517.2 541.88 510.1 546.92 495.08 555.91 487.2 559.84 481.9 562.41 476.47 564.74 470.91 566.84 465.35 568.96 459.66 570.85 453.87 572.5 448.07 574.18 442.17 575.62 436.16 576.8 430.16 578.02 424.05 579 417.86 579.7 411.67 580.45 405.39 580.93 399.03 581.13 392.68 581.36 386.41 581.31 380.23 580.97 374.05 580.66 367.97 580.06 361.99 579.18 356.02 578.32 350.16 577.17 344.43 575.74 335.91 573.47 319.57 567.53 311.79 563.88 304.18 559.94 289.83 550.75 283.11 545.52 276.58 540.02 264.45 527.85 258.86 521.22 255.18 516.71 251.7 512 248.41 507.11 245.1 502.21 241.99 497.13 239.1 491.89 236.17 486.64 233.46 481.23 230.98 475.68 228.48 470.13 226.23 464.44 224.24 458.64 222.25 452.84 220.54 446.92 219.14 440.91 217.76 434.89 216.7 428.79 215.99 422.61 215.32 416.43 215 410.19 215.05 403.89 215.15 397.58 215.61 391.38 216.4 385.29 217.22 379.2 218.35 373.22 219.78 367.37 221.21 361.52 222.92 355.79 224.88 350.2 227.91 341.88 235.07 325.92 239.17 318.31 243.45 310.81 253.03 296.54 258.33 289.77 263.84 283.09 275.9 270.43 282.44 264.45 286.88 260.47 291.52 256.65 296.33 252.98 301.16 249.27 306.17 245.73 311.35 242.37 316.53 238.96 321.88 235.74 327.37 232.73 332.87 229.7 338.51 226.88 344.28 224.31 350.05 221.73 355.94 219.42 361.94 217.4 367.94 215.4 374.05 213.72 380.24 212.39 386.43 211.11 392.71 210.19 399.07 209.67" stroke-dasharray="67 44" transform="rotate(9.5, 400, 400)" opacity="0.91"></path><path d="M399 221.28C410.9 220.54 422.53 221.36 433.76 223.6 445 226.16 455.86 230.08 466.24 235.2 476.63 240.51 486.56 246.9 495.9 254.19 505.27 261.53 514.06 269.68 522.13 278.46 530.19 287.22 537.5 296.57 543.9 306.4 550.21 316.17 555.57 326.42 559.82 337.05 563.97 347.64 567.04 358.63 568.96 369.91 570.89 381.18 571.77 392.77 571.55 404.57 571.5 416.36 570.4 427.82 568.33 438.82 566.37 449.82 563.35 460.36 559.33 470.32 555.26 480.28 550.12 489.66 544.02 498.35 537.82 507.03 530.67 515.03 522.72 522.24 514.71 529.46 505.95 535.92 496.56 541.52 487.17 547.19 477.18 552.03 466.72 555.96 456.27 560.01 445.35 563.18 434.06 565.4 422.78 567.76 411.12 569.17 399.22 569.52 387.31 570.01 375.71 569.39 364.53 567.73 353.36 566.14 342.62 563.46 332.44 559.79 322.26 556.1 312.64 551.38 303.67 545.72 294.7 540.01 286.37 533.35 278.77 525.86 271.11 518.29 264.14 509.92 257.94 500.85 251.64 491.73 246.1 481.94 241.44 471.63 236.73 461.28 232.97 450.43 230.34 439.21 227.81 427.98 226.5 416.4 226.55 404.61 226.77 392.81 228.3 381.36 230.97 370.36 233.65 359.36 237.36 348.8 241.94 338.77 246.41 328.7 251.73 319.13 257.82 310.13 263.82 301.04 270.63 292.47 278.18 284.49 285.71 276.37 294.03 268.8 303.01 261.87 312.02 254.79 321.71 248.36 331.95 242.72 342.21 237.01 353.01 232.17 364.23 228.41 375.45 224.75 387.08 222.3 398.99 221.28" stroke-dasharray="63 82" transform="rotate(11.4, 400, 400)" opacity="0.32"></path><path d="M399.07 232.88C410.18 232.2 421.05 232.94 431.56 234.99 442.08 237.3 452.25 240.88 461.98 245.56 471.72 250.42 481.02 256.3 489.77 263.03 498.54 269.83 506.74 277.4 514.26 285.59 521.76 293.77 528.53 302.53 534.45 311.74 540.28 320.92 545.22 330.55 549.15 340.54 552.98 350.49 555.83 360.81 557.62 371.39 559.42 381.96 560.25 392.81 560.05 403.83 560 414.86 558.95 425.55 557.01 435.8 555.16 446.06 552.33 455.87 548.59 465.14 544.81 474.41 540.06 483.14 534.42 491.23 528.71 499.31 522.1 506.77 514.74 513.49 507.32 520.24 499.18 526.28 490.45 531.53 481.69 536.84 472.37 541.39 462.6 545.09 452.83 548.9 442.62 551.9 432.07 554 421.52 556.23 410.63 557.57 399.52 557.91 388.4 558.38 377.59 557.81 367.17 556.27 356.76 554.8 346.76 552.32 337.27 548.91 327.78 545.51 318.79 541.14 310.42 535.91 302.02 530.63 294.2 524.48 287.05 517.56 279.85 510.58 273.27 502.84 267.42 494.46 261.48 486.02 256.27 476.97 251.89 467.41 247.49 457.82 243.99 447.76 241.55 437.33 239.21 426.9 238 416.13 238.05 405.13 238.25 394.13 239.67 383.43 242.16 373.14 244.66 362.84 248.14 352.92 252.45 343.47 256.67 334 261.7 324.96 267.44 316.43 273.1 307.83 279.5 299.71 286.58 292.13 293.62 284.44 301.37 277.27 309.74 270.71 318.12 264.04 327.12 258 336.64 252.72 346.18 247.39 356.22 242.91 366.66 239.44 377.11 236.06 387.95 233.82 399.06 232.89" stroke-dasharray="70 18" transform="rotate(13.299999999999999, 400, 400)" opacity="0.47"></path><path d="M399.29 244.49C409.61 243.86 419.71 244.53 429.49 246.39 439.28 248.47 448.75 251.71 457.81 255.97 466.88 260.4 475.53 265.77 483.67 271.95 491.81 278.19 499.41 285.17 506.37 292.75 513.29 300.33 519.52 308.48 524.96 317.06 530.32 325.61 534.85 334.6 538.45 343.92 541.98 353.21 544.61 362.84 546.27 372.71 547.95 382.57 548.73 392.68 548.55 402.94 548.5 413.19 547.51 423.13 545.69 432.64 543.95 442.16 541.31 451.26 537.84 459.85 534.35 468.45 529.97 476.54 524.78 484.04 519.53 491.55 513.47 498.47 506.69 504.72 499.87 511 492.36 516.63 484.28 521.53 476.19 526.5 467.55 530.76 458.49 534.24 449.42 537.81 439.93 540.63 430.13 542.61 420.33 544.7 410.22 545.97 399.9 546.3 389.58 546.75 379.53 546.23 369.87 544.81 360.21 543.45 350.92 541.16 342.1 538.02 333.28 534.88 324.92 530.86 317.11 526.04 309.28 521.19 301.97 515.53 295.27 509.17 288.52 502.76 282.35 495.64 276.85 487.93 271.29 480.17 266.41 471.84 262.33 463.02 258.25 454.19 255.01 444.89 252.76 435.26 250.6 425.61 249.5 415.63 249.55 405.43 249.73 395.22 251.04 385.27 253.35 375.67 255.67 366.07 258.91 356.8 262.95 347.95 266.91 339.07 271.64 330.57 277.02 322.55 282.34 314.46 288.33 306.8 294.94 299.65 301.52 292.42 308.73 285.67 316.5 279.51 324.27 273.27 332.61 267.63 341.43 262.73 350.25 257.79 359.56 253.66 369.23 250.48 378.91 247.38 388.97 245.33 399.29 244.49" stroke-dasharray="30 41" transform="rotate(15.200000000000001, 400, 400)" opacity="0.21"></path><path d="M399.61 256.1C409.14 255.52 418.47 256.12 427.52 257.8 436.56 259.66 445.32 262.59 453.69 266.44 462.07 270.44 470.06 275.32 477.56 280.94 485.05 286.63 492.04 293.02 498.42 299.98 504.76 306.95 510.46 314.45 515.42 322.38 520.31 330.29 524.45 338.61 527.74 347.24 530.98 355.86 533.4 364.78 534.93 373.93 536.48 383.06 537.21 392.42 537.05 401.91 537 411.4 536.08 420.58 534.37 429.36 532.75 438.15 530.3 446.55 527.09 454.48 523.88 462.42 519.86 469.89 515.1 476.82 510.31 483.76 504.76 490.16 498.57 495.95 492.33 501.77 485.45 507 478.05 511.56 470.62 516.17 462.68 520.14 454.33 523.39 445.98 526.73 437.23 529.37 428.19 531.22 419.15 533.18 409.81 534.37 400.29 534.7 390.76 535.12 381.49 534.64 372.57 533.34 363.64 532.09 355.06 529.99 346.9 527.1 338.73 524.22 330.98 520.53 323.73 516.12 316.45 511.68 309.65 506.51 303.41 500.68 297.11 494.83 291.36 488.32 286.24 481.26 281.08 474.17 276.55 466.53 272.78 458.45 269.01 450.36 266.03 441.83 263.98 432.97 262.01 424.1 261 414.91 261.05 405.49 261.21 396.07 262.41 386.86 264.53 377.96 266.68 369.06 269.68 360.44 273.42 352.19 277.12 343.92 281.53 335.99 286.55 328.49 291.51 320.93 297.11 313.76 303.26 307.07 309.36 300.32 316.05 294.02 323.25 288.29 330.43 282.49 338.13 277.27 346.26 272.75 354.4 268.22 362.97 264.43 371.89 261.53 380.82 258.71 390.09 256.86 399.61 256.1" stroke-dasharray="68 18" transform="rotate(17.1, 400, 400)" opacity="0.49"></path><path d="M400 267.71C408.73 267.18 417.29 267.71 425.58 269.22 433.87 270.88 441.9 273.49 449.57 276.96 457.24 280.54 464.55 284.93 471.4 290.01 478.24 295.16 484.6 300.95 490.4 307.28 496.16 313.63 501.33 320.48 505.83 327.74 510.27 334.99 514.02 342.62 517.01 350.55 519.96 358.47 522.18 366.67 523.58 375.08 525.02 383.48 525.7 392.08 525.55 400.8 525.5 409.52 524.64 417.94 523.06 426.01 521.56 434.08 519.29 441.79 516.34 449.07 513.4 456.35 509.72 463.22 505.39 469.58 501.03 475.96 495.99 481.85 490.36 487.19 484.7 492.56 478.45 497.38 471.71 501.6 464.95 505.87 457.71 509.55 450.09 512.57 442.47 515.67 434.47 518.12 426.19 519.85 417.92 521.67 409.37 522.78 400.63 523.09 391.9 523.48 383.4 523.05 375.2 521.86 367.01 520.72 359.12 518.8 351.61 516.16 344.1 513.54 336.95 510.18 330.26 506.15 323.53 502.12 317.25 497.42 311.46 492.11 305.65 486.8 300.33 480.88 295.6 474.46 290.84 468.01 286.68 461.07 283.22 453.71 279.77 446.33 277.07 438.55 275.2 430.46 273.41 422.36 272.5 413.95 272.55 405.31 272.7 396.67 273.79 388.21 275.72 380.02 277.69 371.81 280.44 363.86 283.89 356.23 287.3 348.58 291.38 341.23 296.03 334.27 300.64 327.26 305.82 320.61 311.5 314.41 317.15 308.16 323.32 302.34 329.95 297.05 336.55 291.72 343.63 286.93 351.09 282.79 358.56 278.66 366.42 275.22 374.59 272.6 382.77 270.06 391.27 268.38 400 267.71" stroke-dasharray="42 58" transform="rotate(19, 400, 400)" opacity="0.98"></path><path d="M400.39 279.32C408.33 278.84 416.1 279.31 423.64 280.65 431.17 282.11 438.45 284.44 445.41 287.52 452.36 290.7 458.98 294.62 465.17 299.16 471.35 303.77 477.09 308.97 482.31 314.67 487.5 320.4 492.15 326.6 496.19 333.17 500.19 339.74 503.57 346.68 506.27 353.89 508.95 361.09 510.96 368.56 512.24 376.22 513.56 383.87 514.18 391.71 514.05 399.66 514 407.6 513.21 415.28 511.76 422.63 510.37 429.98 508.3 437.01 505.59 443.64 502.91 450.28 499.58 456.54 495.65 462.35 491.71 468.18 487.17 473.57 482.09 478.45 476.98 483.37 471.35 487.8 465.27 491.67 459.17 495.59 452.63 498.98 445.74 501.77 438.84 504.62 431.6 506.88 424.09 508.48 416.58 510.16 408.82 511.18 400.88 511.48 392.94 511.85 385.2 511.46 377.74 510.38 370.27 509.35 363.07 507.6 356.21 505.2 349.35 502.83 342.81 499.79 336.67 496.14 330.52 492.5 324.75 488.25 319.45 483.47 314.12 478.67 309.26 473.33 304.93 467.53 300.59 461.71 296.81 455.44 293.67 448.78 290.55 442.12 288.11 435.08 286.43 427.74 284.82 420.4 284 412.76 284.05 404.9 284.18 397.04 285.17 389.33 286.92 381.84 288.69 374.34 291.2 367.06 294.34 360.07 297.47 353.05 301.2 346.31 305.47 339.91 309.7 333.48 314.46 327.38 319.67 321.69 324.86 315.96 330.52 310.64 336.58 305.81 342.62 300.95 349.08 296.6 355.88 292.86 362.68 289.13 369.84 286.04 377.28 283.69 384.72 281.41 392.45 279.91 400.39 279.32" stroke-dasharray="32 25" transform="rotate(20.900000000000002, 400, 400)" opacity="0.90"></path><path d="M400.71 290.93C407.86 290.5 414.85 290.91 421.62 292.09 428.39 293.37 434.93 295.41 441.16 298.13 447.39 300.93 453.31 304.38 458.85 308.41 464.37 312.48 469.49 317.1 474.14 322.18 478.77 327.28 482.92 332.81 486.51 338.69 490.09 344.58 493.11 350.81 495.52 357.29 497.93 363.77 499.74 370.49 500.91 377.39 502.1 384.29 502.66 391.36 502.55 398.53 502.5 405.69 501.78 412.62 500.46 419.25 499.19 425.89 497.31 432.24 494.86 438.23 492.44 444.24 489.43 449.9 485.9 455.16 482.37 460.44 478.3 465.32 473.75 469.76 469.19 474.22 464.16 478.25 458.73 481.78 453.28 485.35 447.43 488.44 441.26 490.98 435.08 493.59 428.59 495.65 421.85 497.12 415.11 498.65 408.14 499.59 400.99 499.87 393.85 500.21 386.87 499.87 380.13 498.89 373.39 497.96 366.89 496.39 360.69 494.24 354.47 492.1 348.55 489.37 342.99 486.1 337.41 482.84 332.18 479.03 327.38 474.74 322.56 470.45 318.16 465.68 314.25 460.48 310.34 455.28 306.94 449.67 304.13 443.7 301.34 437.73 299.15 431.42 297.67 424.82 296.23 418.23 295.5 411.36 295.55 404.28 295.66 397.19 296.54 390.23 298.11 383.46 299.7 376.68 301.96 370.08 304.79 363.74 307.61 357.38 311 351.26 314.86 345.45 318.71 339.61 323.03 334.08 327.77 328.92 332.48 323.74 337.62 318.93 343.11 314.57 348.59 310.21 354.43 306.3 360.59 302.96 366.73 299.62 373.19 296.87 379.9 294.79 386.61 292.77 393.57 291.45 400.71 290.93" stroke-dasharray="12 66" transform="rotate(22.8, 400, 400)" opacity="0.29"></path><path d="M400.93 302.53C407.28 302.16 413.49 302.51 419.49 303.54 425.49 304.65 431.28 306.42 436.8 308.79 442.31 311.22 447.54 314.23 452.42 317.74 457.29 321.3 461.8 325.35 465.9 329.8 469.98 334.28 473.63 339.15 476.8 344.34 479.96 349.54 482.63 355.05 484.77 360.79 486.91 366.54 488.53 372.51 489.57 378.65 490.64 384.78 491.15 391.07 491.05 397.46 491 403.84 490.36 410.02 489.17 415.94 487.18 424.69 480.63 440.78 476.14 448.02 471.2 454.94 459.12 466.94 452.09 471.93 447.28 475.15 442.11 477.93 436.65 480.23 431.19 482.57 425.44 484.44 419.47 485.77 413.49 487.15 407.3 488.01 400.95 488.26 394.59 488.57 388.38 488.27 382.38 487.4 376.37 486.57 370.57 485.17 365.03 483.26 356.83 480.15 341.89 471.45 335.26 465.96 329 460.05 318.59 446.25 314.59 438.48 312.13 433.19 310.21 427.59 308.91 421.74 307.64 415.88 307 409.77 307.05 403.47 307.15 397.16 307.93 390.95 309.31 384.9 310.72 378.85 312.72 372.95 315.23 367.27 317.75 361.59 320.77 356.11 324.22 350.91 327.67 345.69 331.54 340.74 335.79 336.13 340.02 331.51 344.62 327.23 349.54 323.36 354.45 319.49 359.68 316.03 365.17 313.08 370.66 310.15 376.43 307.73 382.4 305.91 388.38 304.14 394.57 302.98 400.93 302.53" stroke-dasharray="74 41" transform="rotate(24.7, 400, 400)" opacity="0.71"></path><path d="M400.99 314.14C412.11 313.54 422.69 315.48 432.3 319.49 441.88 323.69 450.46 329.88 457.59 337.55 464.66 345.31 470.28 354.44 474.02 364.45 477.78 374.46 479.75 385.31 479.55 396.5 479.5 407.69 477.32 418.19 473.43 427.62 469.61 437.08 464 445.51 456.96 452.55 449.92 459.66 441.44 465.44 431.92 469.5 422.4 473.7 411.87 476.23 400.75 476.66 389.64 477.24 379 475.65 369.26 472.27 359.51 468.95 350.65 463.78 343.12 457.13 335.59 450.5 329.41 442.37 325.08 433.13 320.83 423.9 318.5 413.56 318.55 402.51 318.75 391.45 321.29 380.7 325.68 370.72 330.08 360.71 336.25 351.43 343.74 343.35 351.19 335.25 359.96 328.37 369.63 323.24 379.29 318.17 389.88 314.96 400.99 314.14" stroke-dasharray="64 84" transform="rotate(26.599999999999998, 400, 400)" opacity="0.41"></path><path d="M400.91 325.75C410.43 325.23 419.48 326.85 427.67 330.23 435.85 333.74 443.16 338.95 449.22 345.44 455.26 351.99 460.06 359.74 463.28 368.27 466.51 376.81 468.21 386.08 468.05 395.7 468 405.3 466.11 414.35 462.74 422.49 459.43 430.65 454.59 437.95 448.55 444.06 442.52 450.24 435.26 455.26 427.12 458.81 418.98 462.46 409.97 464.66 400.44 465.05 390.92 465.55 381.78 464.19 373.41 461.27 365.04 458.42 357.43 453.98 350.97 448.28 344.53 442.59 339.26 435.63 335.58 427.71 331.97 419.8 330 410.93 330.05 401.44 330.21 391.94 332.37 382.69 336.12 374.1 339.89 365.49 345.2 357.51 351.64 350.59 358.07 343.65 365.63 337.78 373.96 333.43 382.28 329.13 391.38 326.42 400.91 325.75" stroke-dasharray="35 40" transform="rotate(28.5, 400, 400)" opacity="0.99"></path><path d="M400.68 337.36C408.62 336.93 416.14 338.25 422.94 341.01 429.73 343.87 435.8 348.13 440.83 353.45 445.85 358.83 449.85 365.22 452.54 372.27 455.25 379.35 456.68 387.06 456.55 395.08 456.5 403.09 454.9 410.67 452.07 417.5 449.28 424.36 445.22 430.51 440.16 435.67 435.12 440.88 429.07 445.13 422.29 448.15 415.51 451.23 408 453.1 400.06 453.44 392.12 453.86 384.5 452.72 377.52 450.28 370.55 447.88 364.21 444.17 358.84 439.4 353.49 434.66 349.14 428.84 346.1 422.24 343.12 415.64 341.5 408.23 341.55 400.3 341.68 392.37 343.47 384.64 346.57 377.46 349.71 370.27 354.13 363.62 359.51 357.86 364.88 352.1 371.21 347.24 378.18 343.66 385.14 340.12 392.74 337.9 400.68 337.36" stroke-dasharray="48 18" transform="rotate(30.400000000000002, 400, 400)" opacity="0.69"></path><path d="M400.35 348.97C409.7 349.14 425.98 355.73 432.42 361.6 436.44 365.83 439.64 370.88 441.81 376.49 443.99 382.1 445.15 388.25 445.05 394.67 445 401.09 443.71 407.18 441.42 412.69 437.52 420.71 425.32 433.33 417.46 437.52 412.03 440.02 406.02 441.54 399.67 441.83 390.27 441.71 373.55 435.86 366.75 430.53 360.77 424.38 353.64 408.49 353.05 399.16 353.15 392.79 354.57 386.6 357.04 380.85 359.53 375.1 363.06 369.78 367.36 365.19 371.67 360.61 376.74 356.76 382.32 353.93 387.9 351.13 393.99 349.38 400.35 348.97" stroke-dasharray="77 4" transform="rotate(32.3, 400, 400)" opacity="0.43"></path><path d="M399.96 360.57C409.48 360.09 417.98 363.69 424.01 369.88 430.07 376.14 433.71 384.86 433.55 394.5 433.5 404.13 429.67 412.85 423.51 419.21 417.39 425.64 408.86 429.8 399.33 430.22 389.8 430.77 381.08 427.47 374.72 421.68 368.39 415.93 364.5 407.61 364.55 398.05 364.71 388.48 368.79 379.45 375.22 372.6 381.67 365.77 390.43 361.2 399.96 360.57" stroke-dasharray="4 70" transform="rotate(34.2, 400, 400)" opacity="0.78"></path><path d="M399.57 372.18C412.27 371.59 422.29 381.72 422.05 394.57 422 407.41 411.79 418.07 399.09 418.61 386.38 419.39 376 409.8 376.05 397.02 376.29 384.23 386.86 373.03 399.57 372.18" stroke-dasharray="31 10" transform="rotate(36.1, 400, 400)" opacity="0.55"></path></g></svg>