<?xml version="1.0" standalone="no"?>
<svg viewBox="0 0 200 200" xmlns="http://www.w3.org/2000/svg">
  <path fill="#E4A300" d="M39.9,-69.8C52.4,-61.9,63.6,-52.6,72.1,-40.7C80.6,-28.8,86.3,-14.4,87.8,0.9C89.3,16.1,86.6,32.3,78.2,44.4C69.9,56.4,55.8,64.4,41.9,72.5C27.9,80.6,13.9,88.8,-0.6,89.9C-15.1,90.9,-30.3,84.8,-43.8,76.4C-57.4,68.1,-69.4,57.5,-77,44.4C-84.6,31.3,-87.8,15.7,-87.9,-0.1C-88.1,-15.8,-85.2,-31.7,-77.2,-44.1C-69.3,-56.6,-56.2,-65.7,-42.5,-72.9C-28.8,-80.1,-14.4,-85.2,-0.3,-84.6C13.7,-84,27.4,-77.6,39.9,-69.8Z" transform="translate(100 100)" />
</svg>
