<svg xmlns="http://www.w3.org/2000/svg" version="1.1" xmlns:xlink="http://www.w3.org/1999/xlink" xmlns:svgjs="http://svgjs.dev/svgjs" viewBox="0 0 800 400"><path d="M75.78475189208984,257.39910888671875C76.68161265055339,273.841557820638,69.35724767049153,357.10014088948566,81.1659164428711,356.0538024902344C92.97458521525066,355.0074640909831,117.93721135457356,250.5231679280599,146.6367645263672,251.12107849121094C175.3363176981608,251.71898905436197,204.48431142171225,339.1629409790039,253.3632354736328,359.6412658691406C302.2421595255534,380.11959075927734,379.2227198282878,381.0164388020833,439.9103088378906,373.99102783203125C500.59789784749347,366.9656168619792,573.2436269124349,346.3378270467122,617.48876953125,317.4888000488281C661.7339121500651,288.63977305094403,688.938710530599,245.14200973510742,705.3811645507812,200.89686584472656C721.8236185709635,156.6517219543457,708.0717468261719,67.11509704589844,716.1434936523438,52.01793670654297C724.2152404785156,36.9207763671875,744.9925130208334,117.33931477864583,753.8116455078125,110.31390380859375C762.6307779947916,103.28849283854167,766.5171813964844,26.606876373291016,769.0582885742188,9.865470886230469" fill="none" stroke-width="5" stroke="#e4a200fc" stroke-linecap="round" transform="matrix(0.8979931406249999,0,0,0.8979931406249998,21.311198087791695,25.86923561071103)" stroke-dasharray="13 17"></path><defs><linearGradient id="SvgjsLinearGradient1018"><stop stop-color="hsl(37, 99%, 67%)" offset="0"></stop><stop stop-color="hsl(316, 73%, 52%)" offset="1"></stop></linearGradient></defs></svg>
